<?xml version="1.0" encoding="UTF-8"?><svg id="Layer_2" xmlns="http://www.w3.org/2000/svg" viewBox="0 0 400 400.43"><defs><style>.cls-1{fill:#fff;}</style></defs><path class="cls-1" d="M307.76,46.23c-4.45-4.45-11.95-7.56-18.25-7.56h-38.36c-.88,0-8.69,.26-9.99,9.48-.13,.92-.33,2.31-.8,3.69-3.12,9.12-19.64,18.56-41.88,18.56s-38.76-9.44-41.88-18.56c-2.69-7.87-9.53-13.17-17.04-13.17h-35.58q-4.13,0-45.84,41.68L4.83,133.63c-3.11,3.11-4.83,7.25-4.83,11.65,0,4.41,1.71,8.55,4.83,11.67l50.86,50.87c6.22,6.23,17.07,6.23,23.31,0l15.09-15.1v152.95c0,9.09,7.4,16.48,16.48,16.48h177.04c9.08,0,16.48-7.39,16.48-16.48V190.88l16.93,16.93c6.22,6.23,17.08,6.23,23.3,0l50.86-50.87c3.11-3.11,4.83-7.25,4.83-11.66s-1.71-8.54-4.83-11.65l-87.42-87.41ZM67.34,191.5l-46.19-46.2c3.76-3.76,7.9-7.9,12.24-12.24l46.83,45.57-12.88,12.88Zm228.83-31.2c-5.89,0-11.86,4.56-11.86,13.3v168.78H113.86V175.43c0-8.74-5.97-13.3-11.86-13.3-2.42,0-6.06,.76-9.68,4.38l-7.44,7.44-46.83-45.56c27.02-27.01,60.24-60.21,70-69.93h29.9c6.55,18.69,31.38,31.73,60.52,31.73s53.98-13.04,60.52-31.73h30.51c1.07,.01,3.5,1.02,4.27,1.77l69.04,69.04-46.83,45.56-10.14-10.15c-3.62-3.62-7.27-4.38-9.68-4.38Zm36.5,31.2l-12.02-12.02,46.83-45.57,11.39,11.39-46.2,46.2Z"/></svg>