<?xml version="1.0" encoding="UTF-8"?><svg id="Layer_1" xmlns="http://www.w3.org/2000/svg" viewBox="0 0 400 400.43"><defs><style>.cls-1{fill:#fff;}</style></defs><path class="cls-1" d="M97.17,0V386.67h10.8v6.67c0,3.69,2.41,6.67,5.4,6.67s5.4-2.98,5.4-6.67v-6.67h167.34v6.67c0,3.69,2.41,6.67,5.4,6.67s5.4-2.98,5.4-6.67v-6.67h5.4V0H97.17Zm53.98,136.09l8.56,10.57h-17.12l8.56-10.57Zm-43.18-36.09v-13.33h118.76v13.33H107.97Zm129.55-13.33h53.98v60h-53.98v-60Zm-10.8-73.33v60H107.97V13.33h118.76Zm-53.98,360c-5.95,0-10.8-5.98-10.8-13.33s4.84-13.33,10.8-13.33h21.59c2.99,0,5.4-2.98,5.4-6.67s-2.41-6.67-5.4-6.67h-21.59c-11.91,0-21.59,11.96-21.59,26.67,0,4.88,1.14,9.39,3,13.33h-46.19V113.33h37.79v10.57l-20.01,24.71c-.5,.61-.9,1.35-1.17,2.17-.55,1.63-.55,3.47,0,5.09,.55,1.63,1.6,2.93,2.92,3.61,.66,.34,1.36,.51,2.06,.51h43.18c.7,0,1.4-.17,2.06-.51,1.32-.67,2.38-1.97,2.92-3.61,.55-1.63,.55-3.46,0-5.09-.28-.82-.67-1.56-1.17-2.18l-20.01-24.7v-10.57h70.18V373.33h-53.98Zm64.78-140h53.98v60h-53.98v-60Z"/><path class="cls-1" d="M194.34,313.33h-37.79c-2.99,0-5.4,2.98-5.4,6.67s2.41,6.67,5.4,6.67h37.79c5.95,0,10.8,5.98,10.8,13.33s-4.84,13.33-10.8,13.33h-21.59c-2.99,0-5.4,2.98-5.4,6.67s2.41,6.67,5.4,6.67h21.59c11.91,0,21.59-11.96,21.59-26.67s-9.68-26.67-21.59-26.67Z"/></svg>